<svg viewBox="-77 0 512 512.00192" class="svg-kursus" xmlns="http://www.w3.org/2000/svg"><path d="m357.179688 468.679688-22.582032-94.582032c-.035156-.144531-.074218-.289062-.117187-.433594-8.515625-28.0625-36.003907-58.261718-76.242188-58.261718h-30.492187v-32.867188c6.3125-3.859375 12.167968-8.539062 17.488281-14.019531 14.707031-15.148437 25.421875-36.394531 31.164063-61.691406 9.84375-3.222657 17.769531-16.195313 19.519531-33.320313.113281-1.085937.195312-2.167968.25-3.242187 11.371093-23.226563 15.160156-43.972657 11.871093-65.144531-2.960937-19.054688-11.574218-38.292969-27.933593-62.375-10.503907-15.457032-27.8125-27.5625-50.058594-35.015626-20.414063-6.839843-43.953125-9.246093-66.289063-6.785156-19.320312 2.128906-37.125 7.820313-51.492187 16.453125-15.5 9.320313-26.660156 21.617188-33.207031 36.585938-10.375 6.320312-18.050782 15.101562-22.839844 26.132812-1.65625 3.808594.09375 8.238281 3.902344 9.894531 3.8125 1.652344 8.242187-.09375 9.894531-3.902343 3.789063-8.726563 10.066406-15.5625 18.65625-20.316407 1.523437-.84375 2.707031-2.191406 3.351563-3.808593 10-25.25 36.746093-42.046875 73.382812-46.085938 42.875-4.730469 84.921875 9.789063 102.253906 35.300781 15.046875 22.148438 22.914063 39.488282 25.511719 56.230469 1.851563 11.902344.996094 23.773438-2.667969 36.332031-3.296875-5.179687-7.789062-8.25-13.023437-8.785156-2.367188-.242187-4.738281.074219-7.054688.9375-.660156.246094-1.28125.582032-1.847656 1-.160156.117188-17.113281 11.449219-56.71875-1.9375-5.300781-1.789062-10.53125-5.5-16.585937-9.796875-15.425782-10.945312-36.558594-25.933593-75.695313-16.898437-18.386719 4.242187-32.164063 19.371094-37.875 26.625-.34375.011718-.6875.035156-1.03125.070312-3.152344.320313-6.027344 1.566406-8.542969 3.628906-2.828125-6.898437-4.800781-14.230468-5.714844-21.351562-.53125-4.117188-4.304687-7.03125-8.421874-6.5-4.117188.53125-7.03125 4.300781-6.5 8.417969 1.191406 9.269531 3.875 18.828125 7.769531 27.640625 1.242187 2.808594 2.535156 5.679687 3.847656 8.550781-1.203125 5.539063-1.53125 11.777344-.878906 18.144531 1.753906 17.128906 9.679687 30.105469 19.523437 33.324219 5.742188 25.296875 16.457032 46.539063 31.160156 61.6875 5.371094 5.53125 11.285157 10.25 17.660157 14.132813v32.753906h-30.664063c-19.453125 0-36.3125 6.105468-50.109375 18.148437-11.171875 9.75-20.164062 23.496094-26.011719 39.75-.09375.261719-.171874.527344-.238281.800781l-22.582031 94.578126c-2.503906 10.492187-.101562 21.375 6.59375 29.855468 6.753906 8.558594 16.902344 13.464844 27.839844 13.464844h208.460937c4.15625 0 7.523438-3.367188 7.523438-7.519531 0-4.152344-3.367188-7.523438-7.523438-7.523438h-21.8125l-18.167969-110.519531v-31.707031c0-2.585938-.582031-5.027344-1.597656-7.234375 8.472656-3.761719 15.988282-9.5625 21.800782-17.046875h34.152343c32.472657 0 54.757813 24.511719 61.78125 47.371093l22.527344 94.351563c1.429687 5.984375.054687 12.199219-3.769531 17.042969-3.882813 4.921875-9.726563 7.742187-16.03125 7.742187h-43.777344c-4.152344 0-7.523438 3.367188-7.523438 7.523438 0 4.152343 3.371094 7.519531 7.523438 7.519531h43.777344c10.9375 0 21.085937-4.90625 27.839844-13.464844 6.695312-8.480468 9.097656-19.363281 6.59375-29.855468zm-261.804688-270.179688c-.699219-3.589844-3.855469-6.082031-7.386719-6.082031-.46875 0-.945312.042969-1.425781.136719-1.398438.113281-7.886719-6.121094-9.363281-20.582032-.660157-6.4375-.023438-12.746094 1.746093-17.3125 1.332032-3.445312 2.871094-4.683594 3.253907-4.71875.015625-.003906.113281.003906.285156.070313 3.277344 1.214843 6.960937.015625 8.890625-2.898438 3.675781-5.542969 16.515625-20.699219 31.589844-24.179687 32.558594-7.515625 48.34375 3.683594 63.605468 14.511718 6.730469 4.773438 13.085938 9.285157 20.472657 11.78125 41.292969 13.957032 63.285156 4.046876 68.992187.734376.476563.167968 1.917969 1.453124 3.175782 4.699218 1.765624 4.566406 2.402343 10.878906 1.746093 17.316406-1.480469 14.457032-7.957031 20.746094-9.378906 20.574219-4.066406-.777343-8.007813 1.882813-8.796875 5.953125-10.160156 52.226563-40.667969 82.179688-83.703125 82.179688-43.039063 0-73.546875-29.953125-83.703125-82.183594zm56.144531 298.457031 4.230469-25.804687c.671875-4.101563-2.105469-7.96875-6.203125-8.640625-4.097656-.675781-7.96875 2.105469-8.640625 6.207031l-4.632812 28.238281h-100.867188c-6.304688 0-12.148438-2.820312-16.035156-7.742187-3.824219-4.84375-5.199219-11.054688-3.765625-17.042969l22.480469-94.167969c15.046874-41.363281 45.175781-47.554687 61.828124-47.554687h34.339844c5.808594 7.480469 13.320313 13.28125 21.789063 17.042969-1.015625 2.203124-1.601563 4.652343-1.601563 7.234374v31.457032l-7.78125 47.449218c-.671875 4.101563 2.105469 7.96875 6.207032 8.640626.410156.066406.820312.101562 1.226562.101562 3.617188 0 6.808594-2.617188 7.414062-6.304688l6.824219-41.621093h21.625l16.847657 102.507812zm37.320313-117.554687h-19.355469v-24.675782c0-1.277343 1.042969-2.320312 2.320313-2.320312h14.71875c1.277343 0 2.316406 1.042969 2.316406 2.320312zm-9.664063-42.039063h-.050781c-13.488281-.015625-25.574219-6.128906-33.503906-16.835937v-30.625c10.34375 3.835937 21.570312 5.824218 33.457031 5.824218 11.953125 0 23.234375-2.011718 33.628906-5.890624v30.710937c-7.945312 10.710937-20.042969 16.816406-33.53125 16.816406zm0 0"/><path d="m190.304688 240.148438c3.140624 1.09375 6.527343 1.640624 10.148437 1.640624 5.847656 0 12.304687-1.429687 19.300781-4.285156 7.875-3.214844 13.667969-7.164062 13.910156-7.332031 2.457032-1.683594 3.683594-4.660156 3.132813-7.589844-.546875-2.929687-2.773437-5.253906-5.675781-5.933593-.140625-.03125-14.160156-3.550782-22.207032-13.847657-6.597656-8.441406-13.238281-9.382812-17.652343-8.691406-5.042969.792969-9.058594 4.03125-12.09375 7.722656-3.039063-3.691406-7.054688-6.929687-12.097657-7.722656-4.410156-.691406-11.054687.25-17.652343 8.691406-8.078125 10.339844-22.089844 13.820313-22.207031 13.847657-2.898438.679687-5.125 3.007812-5.675782 5.933593-.550781 2.925781.675782 5.90625 3.132813 7.589844.242187.167969 6.035156 4.117187 13.910156 7.332031 6.996094 2.855469 13.453125 4.285156 19.300781 4.285156 3.621094 0 7.007813-.546874 10.148438-1.640624 3.425781-1.199219 7.496094-3.421876 11.136718-7.550782 3.644532 4.128906 7.714844 6.351563 11.140626 7.550782zm3.277343-31.179688c.011719 0 1.257813.25 3.480469 3.09375 4.289062 5.488281 9.574219 9.542969 14.539062 12.476562-5.542968 1.960938-11.605468 3.066407-16.359374 1.398438-3.527344-1.242188-6.167969-4.105469-8.023438-8.722656 2.082031-4.40625 5.027344-8.078125 6.363281-8.246094zm-30.488281 16.96875c-4.753906 1.667969-10.816406.5625-16.359375-1.398438 4.964844-2.933593 10.25-6.988281 14.539063-12.476562 2.222656-2.84375 3.46875-3.09375 3.460937-3.09375 1.351563.167969 4.300781 3.839844 6.382813 8.246094-1.855469 4.617187-4.496094 7.480468-8.023438 8.722656zm0 0"/></svg>
                        