<svg class="svg" viewBox="0 0 496 496.01039"  xmlns="http://www.w3.org/2000/svg"><path d="m488.003906 320.011719h-8v-88c0-4.425781-3.582031-8-8-8h-44.6875l-160-160 26.34375-26.34375c3.128906-3.128907 3.128906-8.1875 0-11.3125l-24-24c-3.128906-3.128907-8.183594-3.128907-11.3125 0l-221.65625 221.65625h-12.6875c-4.414062 0-8 3.574219-8 8v88h-8c-4.414062 0-7.99999975 3.574219-7.99999975 8v48c0 4.421875 3.58593775 8 7.99999975 8h8.554688l7.46875 104.566406c.296875 4.191406 3.785156 7.433594 7.976562 7.433594h32c4.191406 0 7.679688-3.242188 7.984375-7.433594l7.464844-104.566406h337.105469l7.46875 104.566406c.296875 4.191406 3.785156 7.433594 7.976562 7.433594h32c4.191406 0 7.679688-3.242188 7.984375-7.433594l7.464844-104.566406h8.550781c4.417969 0 8-3.578125 8-8v-48c0-4.425781-3.582031-8-8-8zm-83.3125-96h-84.6875v-16c0-2.128907-.839844-4.160157-2.34375-5.65625l-24-24c-1.496094-1.503907-3.535156-2.34375-5.65625-2.34375h-104c-4.414062 0-8 3.574219-8 8v40h-68.6875l148.6875-148.6875zm-212.6875 32v-64h48v64zm64-64h28.6875l19.3125 19.3125v44.6875h-48zm8-172.6875 12.6875 12.6875-192 192h-25.375zm-232 220.6875h144v24c0 4.421875 3.585938 8 8 8h128c4.417969 0 8-3.578125 8-8v-24h144v80h-16v-24c0-4.425781-3.582031-8-8-8h-384c-4.414062 0-8 3.574219-8 8v24h-16zm32 80v-16h32v16zm48-16h16v16h-16zm32 0h16v16h-16zm32 0h16v16h-16zm32 0h16v16h-16zm32 0h16v16h-16zm32 0h16v16h-16zm32 0h16v16h-16zm32 0h16v16h-16zm32 0h16v16h-16zm32 0h32v16h-32zm-360.550781 176-1.144531-16h19.382812l-1.140625 16zm19.382813-32h-21.664063l-4.566406-64h30.816406zm380.617187 32-1.144531-16h19.382812l-1.140625 16zm19.390625-32h-21.671875l-4.566406-64h30.816406zm21.160156-80h-464v-32h464zm0 0"/><path d="m368.003906 120.011719c13.234375 0 24-10.769531 24-24v-58.457031l48-18v37.925781c-2.511718-.894531-5.183594-1.46875-8-1.46875-13.230468 0-24 10.765625-24 24 0 13.230469 10.769532 24 24 24 13.234375 0 24-10.769531 24-24v-72c0-2.625-1.285156-5.082031-3.4375-6.578125-2.167968-1.496094-4.90625-1.839844-7.371094-.910156l-64 24c-3.117187 1.167968-5.191406 4.152343-5.191406 7.488281v41.46875c-2.511718-.894531-5.183594-1.46875-8-1.46875-13.230468 0-24 10.765625-24 24 0 13.230469 10.769532 24 24 24zm64-32c-4.40625 0-8-3.585938-8-8 0-4.417969 3.59375-8 8-8 4.410156 0 8 3.582031 8 8 0 4.414062-3.589844 8-8 8zm-64 0c4.410156 0 8 3.582031 8 8 0 4.414062-3.589844 8-8 8-4.40625 0-8-3.585938-8-8 0-4.417969 3.59375-8 8-8zm0 0"/><path d="m40.003906 120.011719c13.234375 0 24-10.769531 24-24v-68.6875l26.34375 26.34375 11.3125-11.3125-40-40c-2.296875-2.2968752-5.734375-2.992188-8.71875-1.738281-2.984375 1.234374-4.9375 4.160156-4.9375 7.394531v65.46875c-2.511718-.894531-5.183594-1.46875-8-1.46875-13.230468 0-24 10.765625-24 24 0 13.230469 10.769532 24 24 24zm0-32c4.410156 0 8 3.582031 8 8 0 4.414062-3.589844 8-8 8-4.40625 0-8-3.585938-8-8 0-4.417969 3.59375-8 8-8zm0 0"/><path d="m8.003906 136.011719h32v16h-32zm0 0"/><path d="m88.003906 80.011719h16v32h-16zm0 0"/><path d="m112.003906 16.011719h32v16h-32zm0 0"/><path d="m328.003906 8.011719h16v32h-16zm0 0"/><path d="m424.003906 120.011719h32v16h-32zm0 0"/><path d="m480.003906 72.011719h16v32h-16zm0 0"/><path d="m394.347656 157.671875 11.3125-11.316406 24 24.003906-11.3125 11.3125zm0 0"/></svg>